<svg width="512" height="512" viewBox="0 0 24 24" fill="none" xmlns="http://www.w3.org/2000/svg">
  <path d="M13.13 11.022c0.232 -0.231 0.444 -0.476 0.635 -0.732l4.757 -7.29a0.479 0.479 0 0 0 -0.525 -0.734l-8.54 2.27c-0.342 0.091 -0.65 0.288 -0.873 0.559l-3.21 3.882c-0.126 0.151 -0.194 0.342 -0.194 0.538v4.004c0 0.531 0.43 0.962 0.962 0.962h3.94c0.19 0 0.375 -0.065 0.523 -0.185l2.525 -2.052c0.264 -0.215 0.457 -0.514 0.548 -0.846l0.316 -1.16c0.053 -0.192 0.08 -0.391 0.08 -0.589z" fill="white"/>
  <path d="M8.73 14.71l-1.44 1.44a1.5 1.5 0 0 0 -0.44 1.06v1.29a0.5 0.5 0 0 0 0.85 0.35l1.09 -1.09a1.5 1.5 0 0 1 1.06 -0.44h1.29a0.5 0.5 0 0 0 0.35 -0.85l-1.44 -1.44a1.5 1.5 0 0 0 -1.33 -0.32z" fill="white"/>
  <path d="M15.5 8.5c0.828 0 1.5 -0.672 1.5 -1.5s-0.672 -1.5 -1.5 -1.5s-1.5 0.672 -1.5 1.5s0.672 1.5 1.5 1.5z" fill="white"/>
</svg>
