<svg width="132" height="67" viewBox="0 0 132 67" fill="none" xmlns="http://www.w3.org/2000/svg">
<g clip-path="url(#clip0_1013_2885)">
<path d="M119.231 66.8477H0V14.1894L12.5752 0.847656H132V53.5687L119.231 66.8477ZM2.5168 64.2906H118.175L129.483 52.5279V3.41372H13.6488L2.5168 15.2033V64.2906Z" fill="white"/>
<path d="M40.4799 22.291V37.7771H37.4087V22.291H40.4799Z" fill="white"/>
<path d="M53.1258 27.3243V37.7949C53.1258 41.0429 50.6442 43.0347 47.617 43.0347C44.5898 43.0347 42.4954 41.2223 42.2842 38.5306H45.3642C45.4874 39.6342 46.4466 40.1367 47.7226 40.1367C48.033 40.1642 48.3455 40.122 48.6381 40.013C48.9307 39.9041 49.1963 39.731 49.4161 39.506C49.636 39.281 49.8047 39.0095 49.9105 38.7108C50.0162 38.412 50.0564 38.0933 50.0282 37.777V36.5029C49.1514 37.0554 48.1372 37.3388 47.1066 37.3194C45.7826 37.3293 44.5075 36.8097 43.5549 35.872C42.6024 34.9343 42.0482 33.6533 42.0114 32.3039C41.9895 31.6148 42.1062 30.9284 42.3543 30.2871C42.6024 29.6457 42.9766 29.0629 43.4539 28.5745C43.9312 28.0862 44.5016 27.7026 45.1297 27.4475C45.7579 27.1924 46.4307 27.071 47.1066 27.091C48.1367 27.0755 49.1499 27.3587 50.0282 27.9075V27.3512L53.1258 27.3243ZM50.0282 33.4972V30.9401C49.7696 30.542 49.4157 30.2178 48.9999 29.998C48.5842 29.7782 48.1203 29.6701 47.6522 29.684C47.3102 29.6644 46.9679 29.7188 46.6479 29.8436C46.3279 29.9685 46.0374 30.1609 45.7956 30.4084C45.5537 30.6558 45.3659 30.9526 45.2446 31.2793C45.1232 31.606 45.071 31.9552 45.0914 32.3039C45.1299 32.9663 45.4177 33.588 45.8948 34.0393C46.3719 34.4907 47.0015 34.7368 47.6522 34.7264C48.1196 34.7547 48.586 34.6558 49.0035 34.4398C49.421 34.2238 49.7747 33.8985 50.0282 33.4972Z" fill="white"/>
<path d="M65.4808 32.4298C65.4878 33.5394 65.1712 34.6261 64.5713 35.5519C63.9714 36.4777 63.1152 37.2008 62.1114 37.6296C61.1077 38.0583 60.0016 38.1733 58.9336 37.9599C57.8656 37.7464 56.8839 37.2143 56.1131 36.4309C55.3423 35.6476 54.8172 34.6484 54.6045 33.5602C54.3917 32.472 54.5009 31.3439 54.9182 30.3191C55.3355 29.2943 56.042 28.419 56.9481 27.8044C57.8541 27.1897 58.9189 26.8635 60.0072 26.867C60.7318 26.8395 61.4541 26.9644 62.1293 27.234C62.8044 27.5036 63.4179 27.912 63.9314 28.4339C64.4449 28.9558 64.8475 29.5799 65.1141 30.2674C65.3807 30.9549 65.5055 31.691 65.4808 32.4298ZM62.4888 32.4298C62.509 32.0831 62.4595 31.7358 62.3433 31.4093C62.227 31.0828 62.0465 30.7839 61.8129 30.5311C61.5792 30.2783 61.2974 30.0769 60.9846 29.9393C60.6718 29.8016 60.3347 29.7306 59.994 29.7306C59.6533 29.7306 59.3163 29.8016 59.0035 29.9393C58.6907 30.0769 58.4088 30.2783 58.1752 30.5311C57.9415 30.7839 57.761 31.0828 57.6448 31.4093C57.5286 31.7358 57.479 32.0831 57.4992 32.4298C57.479 32.7766 57.5286 33.1239 57.6448 33.4504C57.761 33.7769 57.9415 34.0757 58.1752 34.3285C58.4088 34.5813 58.6907 34.7827 59.0035 34.9204C59.3163 35.0581 59.6533 35.1291 59.994 35.1291C60.3347 35.1291 60.6718 35.0581 60.9846 34.9204C61.2974 34.7827 61.5792 34.5813 61.8129 34.3285C62.0465 34.0757 62.227 33.7769 62.3433 33.4504C62.4595 33.1239 62.509 32.7766 62.4888 32.4298Z" fill="white"/>
<path d="M84.7001 27.3523V37.7601H81.6729V37.1769C80.7954 37.7382 79.7783 38.0309 78.7425 38.0203C77.3742 37.9403 76.0878 37.3298 75.1469 36.3139C74.2059 35.2979 73.6817 33.9535 73.6817 32.5562C73.6817 31.1589 74.2059 29.8145 75.1469 28.7985C76.0878 27.7826 77.3742 27.1721 78.7425 27.0921C79.7783 27.0815 80.7954 27.3742 81.6729 27.9355V27.3523H84.7001ZM81.6465 34.1622V30.986C81.3755 30.5876 81.0074 30.268 80.5784 30.0587C80.1495 29.8495 79.6744 29.7578 79.2001 29.7927C78.4766 29.7927 77.7827 30.0858 77.2711 30.6074C76.7595 31.129 76.4721 31.8365 76.4721 32.5741C76.4721 33.3118 76.7595 34.0193 77.2711 34.5409C77.7827 35.0625 78.4766 35.3555 79.2001 35.3555C79.6744 35.3905 80.1495 35.2988 80.5784 35.0896C81.0074 34.8803 81.3755 34.5607 81.6465 34.1622Z" fill="white"/>
<path d="M97.1783 32.1342V37.7778H94.1599V32.5021C94.1599 30.7884 93.3327 29.9002 91.8455 29.9002C91.3848 29.9384 90.9372 30.0757 90.5322 30.303C90.1272 30.5303 89.774 30.8425 89.4959 31.2191V37.7778H86.4688V27.37H89.5224V28.1506C90.3558 27.4636 91.3987 27.0954 92.4703 27.1098C95.1895 27.1098 97.1783 29.0568 97.1783 32.1342Z" fill="white"/>
<path d="M112.64 22.6764H111.875V24.5157H111.435V22.6764H110.669V22.2637H112.64V22.6764Z" fill="white"/>
<path d="M115.28 24.5337H114.84V23.2775L114.259 24.1748H113.987L113.353 23.2775V24.5516H112.904V22.2637H113.221L114.101 23.6275L114.981 22.2637H115.28V24.5337Z" fill="white"/>
<path d="M35.9831 37.759H32.8415L30.7999 29.989L26.3999 37.759H22.8799L29.6911 25.7271L28.5823 21.5281L19.3599 37.759H15.8399L27.4999 17.1855H30.5975L31.9351 22.3087H35.1119L32.9471 26.1578L35.9831 37.759Z" fill="white"/>
<path d="M109.507 22.291V37.7771H106.41V37.1939C105.533 37.7566 104.515 38.0495 103.479 38.0373C102.111 37.9574 100.825 37.3468 99.8836 36.3309C98.9426 35.315 98.4185 33.9706 98.4185 32.5732C98.4185 31.1759 98.9426 29.8315 99.8836 28.8156C100.825 27.7996 102.111 27.1891 103.479 27.1091C104.515 27.097 105.533 27.3898 106.41 27.9525V22.291H109.507ZM106.41 34.1613V30.9582C106.135 30.5666 105.767 30.2525 105.341 30.0453C104.914 29.8382 104.443 29.7448 103.972 29.7739C103.244 29.7739 102.545 30.0688 102.031 30.5938C101.516 31.1188 101.226 31.8308 101.226 32.5732C101.226 33.3157 101.516 34.0277 102.031 34.5527C102.545 35.0777 103.244 35.3726 103.972 35.3726C104.446 35.3996 104.919 35.3024 105.345 35.0904C105.772 34.8784 106.138 34.5586 106.41 34.1613Z" fill="white"/>
<path d="M73.0399 29.9902C72.4371 29.9922 71.8415 30.1244 71.2925 30.378C70.7434 30.6316 70.2532 31.001 69.8543 31.4617V37.7423H66.8799V27.3973H69.9335V28.1689C70.3714 27.8278 70.8719 27.5798 71.4055 27.4396C71.9391 27.2993 72.4949 27.2697 73.0399 27.3524V29.9902Z" fill="white"/>
<path d="M59.4527 48.4004V43.3311H62.5415V44.0488H60.1919V45.4395H61.7055V46.1573H60.1919V48.4004H59.4527Z" fill="white"/>
<path d="M66.8187 48.4003C66.5375 48.5076 66.2389 48.5594 65.9387 48.5529C65.659 48.5536 65.3816 48.5019 65.1203 48.4003C64.8856 48.3097 64.6725 48.169 64.4955 47.9876C64.3301 47.8105 64.1934 47.6075 64.0907 47.3865C63.9867 47.1596 63.9071 46.9219 63.8531 46.6777C63.7592 46.1798 63.7592 45.6682 63.8531 45.1703C63.9073 44.9232 63.9869 44.6826 64.0907 44.4525C64.1956 44.2327 64.332 44.0301 64.4955 43.8514C64.6734 43.6732 64.8863 43.5356 65.1203 43.4476C65.3996 43.3334 65.6997 43.2814 66.0003 43.2951C66.3008 43.2838 66.6004 43.3358 66.8803 43.4476C67.1121 43.5347 67.3224 43.6725 67.4963 43.8514C67.6626 44.0278 67.7994 44.2309 67.9011 44.4525C68.0131 44.6792 68.0931 44.9208 68.1387 45.1703C68.2326 45.6682 68.2326 46.1798 68.1387 46.6777C68.0923 46.9241 68.0123 47.1626 67.9011 47.3865C67.8016 47.6094 67.6646 47.8128 67.4963 47.9876C67.3052 48.1773 67.0731 48.3186 66.8187 48.4003ZM65.3227 47.6556C65.5197 47.7738 65.7454 47.8329 65.9739 47.8261C66.2058 47.8285 66.434 47.7665 66.6339 47.6467C66.8166 47.5311 66.9678 47.3707 67.0739 47.1801C67.1796 46.9895 67.2567 46.7838 67.3027 46.57C67.3561 46.359 67.3827 46.1419 67.3819 45.924C67.3827 45.6972 67.3561 45.4712 67.3027 45.2511C67.2581 45.0368 67.1809 44.8309 67.0739 44.6409C66.9696 44.4537 66.8176 44.2986 66.6339 44.1923C66.4333 44.0752 66.2051 44.0162 65.9739 44.0219C65.7441 44.0136 65.5172 44.0761 65.3227 44.2013C65.1343 44.3094 64.9812 44.4716 64.8827 44.6679C64.7781 44.8568 64.6982 45.0589 64.6451 45.269C64.5995 45.4843 64.5759 45.7038 64.5747 45.924C64.5755 46.1502 64.599 46.3757 64.6451 46.5969C64.6966 46.8075 64.7766 47.0099 64.8827 47.198C64.9906 47.3732 65.1425 47.5157 65.3227 47.6108V47.6556Z" fill="white"/>
<path d="M71.852 48.509C71.5926 48.5283 71.3322 48.4886 71.0896 48.393C70.847 48.2973 70.6282 48.148 70.4489 47.9558C70.2697 47.7637 70.1344 47.5333 70.053 47.2815C69.9715 47.0296 69.9457 46.7625 69.9776 46.4992V43.332H70.7168V46.4992C70.6991 46.6786 70.7164 46.8597 70.7678 47.0322C70.8191 47.2047 70.9035 47.3651 71.016 47.5041C71.2564 47.6904 71.5501 47.7913 71.852 47.7913C72.154 47.7913 72.4476 47.6904 72.688 47.5041C72.8121 47.3709 72.9075 47.2127 72.9682 47.0396C73.0288 46.8666 73.0533 46.6825 73.04 46.4992V43.332H73.7792V46.4992C73.8113 46.7633 73.7855 47.0313 73.7035 47.2838C73.6215 47.5364 73.4854 47.7672 73.3052 47.9596C73.125 48.1519 72.905 48.301 72.6613 48.3961C72.4176 48.4911 72.1562 48.5297 71.896 48.509H71.852Z" fill="white"/>
<path d="M79.5169 48.4014H78.8217L76.6569 44.956C76.5851 44.8344 76.5205 44.7086 76.4633 44.5792C76.4633 44.8035 76.4633 44.9291 76.4633 44.956V48.4014H75.7241V43.332H76.4721L78.5753 46.7325C78.6509 46.8565 78.7185 46.9854 78.7777 47.1183C78.7777 46.9748 78.7777 46.8492 78.7777 46.7325V43.332H79.5169V48.4014Z" fill="white"/>
<path d="M81.5586 43.3314H82.9578C83.336 43.325 83.7111 43.4015 84.0578 43.5557C84.351 43.6834 84.6081 43.8839 84.8058 44.1389C84.9818 44.3845 85.1185 44.6571 85.2106 44.9464C85.2936 45.2379 85.3351 45.5401 85.3338 45.8437C85.338 46.1474 85.2964 46.45 85.2106 46.7409C85.1249 47.0295 84.9942 47.3022 84.8234 47.5484C84.6313 47.8156 84.3732 48.0261 84.0754 48.1585C83.7145 48.3169 83.3242 48.3935 82.9314 48.3828H81.5586V43.3314ZM83.0546 47.7099C83.3013 47.7137 83.5455 47.6584 83.7674 47.5484C83.9586 47.4436 84.1218 47.2927 84.2426 47.1088C84.3549 46.9291 84.4381 46.7322 84.489 46.5256C84.5424 46.3146 84.569 46.0975 84.5682 45.8796C84.5803 45.4186 84.4545 44.9648 84.2074 44.5786C84.087 44.4049 83.9254 44.2652 83.7376 44.1726C83.5498 44.08 83.3421 44.0376 83.1338 44.0492H82.3066V47.7099H83.0546Z" fill="white"/>
<path d="M90.1295 48.4008L89.7335 47.2344H87.7183L87.3135 48.4008H86.5391L88.2991 43.3135H89.0647L90.8247 48.4008H90.1295ZM89.5047 46.6063L88.8799 44.8567C88.8088 44.6703 88.7529 44.4782 88.7127 44.2825C88.7127 44.453 88.6071 44.6414 88.5367 44.8567L87.9471 46.6063H89.5047Z" fill="white"/>
<path d="M93.7903 44.0588V48.4014H93.0511V44.0588H91.6431V43.332H95.163V44.0588H93.7903Z" fill="white"/>
<path d="M96.9673 48.4004V43.3311H97.6801V48.4004H96.9673Z" fill="white"/>
<path d="M102.617 48.4003C102.336 48.5098 102.037 48.5616 101.737 48.5528C101.437 48.5594 101.138 48.5076 100.857 48.4003C100.625 48.3101 100.415 48.1693 100.241 47.9876C100.073 47.8128 99.9358 47.6094 99.8363 47.3865C99.7251 47.1626 99.6451 46.9241 99.5987 46.6776C99.5049 46.1798 99.5049 45.6682 99.5987 45.1703C99.6443 44.9208 99.7243 44.6792 99.8363 44.4525C99.938 44.2309 100.075 44.0278 100.241 43.8514C100.415 43.6725 100.625 43.5347 100.857 43.4476C101.137 43.3358 101.437 43.2838 101.737 43.2951C102.038 43.2814 102.338 43.3334 102.617 43.4476C102.851 43.5356 103.064 43.6732 103.242 43.8514C103.408 44.0278 103.545 44.2309 103.647 44.4525C103.751 44.6826 103.83 44.9232 103.884 45.1703C103.978 45.6682 103.978 46.1798 103.884 46.6776C103.83 46.9219 103.751 47.1596 103.647 47.3865C103.547 47.6094 103.41 47.8128 103.242 47.9876C103.065 48.169 102.852 48.3097 102.617 48.4003ZM101.121 47.6556C101.322 47.7728 101.55 47.8317 101.781 47.8261C102.01 47.8297 102.236 47.7675 102.432 47.6467C102.619 47.5339 102.774 47.373 102.881 47.1801C102.979 46.986 103.056 46.7814 103.11 46.57C103.156 46.3578 103.18 46.1413 103.18 45.924C103.18 45.6978 103.156 45.4723 103.11 45.2511C103.057 45.0392 102.981 44.8344 102.881 44.6409C102.776 44.4513 102.62 44.2958 102.432 44.1923C102.235 44.0742 102.01 44.0151 101.781 44.0219C101.549 44.015 101.319 44.0774 101.121 44.2013C100.937 44.3146 100.785 44.4756 100.681 44.6679C100.579 44.8571 100.502 45.0592 100.452 45.269C100.4 45.4832 100.373 45.7032 100.373 45.924C100.372 46.1507 100.399 46.3768 100.452 46.5969C100.501 46.8071 100.578 47.0095 100.681 47.198C100.793 47.3694 100.944 47.5109 101.121 47.6108V47.6556Z" fill="white"/>
<path d="M109.595 48.4014H108.9L106.735 44.956C106.663 44.8344 106.599 44.7086 106.541 44.5792C106.541 44.8035 106.541 44.9291 106.541 44.956V48.4014H105.802V43.332H106.55L108.653 46.7325C108.706 46.8133 108.768 46.9479 108.856 47.1183C108.856 46.9748 108.856 46.8492 108.856 46.7325V43.332H109.595V48.4014Z" fill="white"/>
</g>
<defs>
<clipPath id="clip0_1013_2885">
<rect width="132" height="66" fill="white" transform="translate(0 0.847656)"/>
</clipPath>
</defs>
</svg>
